<?xml version="1.0" encoding="UTF-8" standalone="no"?>
<svg
   viewBox="0 0 640 640"
   version="1.1"
   id="svg1"
   sodipodi:docname="info-solid-full.svg"
   inkscape:version="1.4 (e7c3feb1, 2024-10-09)"
   xmlns:inkscape="http://www.inkscape.org/namespaces/inkscape"
   xmlns:sodipodi="http://sodipodi.sourceforge.net/DTD/sodipodi-0.dtd"
   xmlns="http://www.w3.org/2000/svg"
   xmlns:svg="http://www.w3.org/2000/svg">
  <defs
     id="defs1" />
  <sodipodi:namedview
     id="namedview1"
     pagecolor="#ffffff"
     bordercolor="#111111"
     borderopacity="1"
     inkscape:showpageshadow="0"
     inkscape:pageopacity="0"
     inkscape:pagecheckerboard="1"
     inkscape:deskcolor="#d1d1d1"
     inkscape:zoom="1.2578125"
     inkscape:cx="320.39752"
     inkscape:cy="320"
     inkscape:window-width="1200"
     inkscape:window-height="982"
     inkscape:window-x="198"
     inkscape:window-y="41"
     inkscape:window-maximized="0"
     inkscape:current-layer="svg1" />
  <!--!Font Awesome Free 7.0.1 by @fontawesome - https://fontawesome.com License - https://fontawesome.com/license/free Copyright 2025 Fonticons, Inc.-->
  <path
     d="M272 112C272 85.5 293.5 64 320 64C346.5 64 368 85.5 368 112C368 138.5 346.5 160 320 160C293.5 160 272 138.5 272 112zM224 256C224 238.3 238.3 224 256 224L320 224C337.7 224 352 238.3 352 256L352 512L384 512C401.7 512 416 526.3 416 544C416 561.7 401.7 576 384 576L256 576C238.3 576 224 561.7 224 544C224 526.3 238.3 512 256 512L288 512L288 288L256 288C238.3 288 224 273.7 224 256z"
     id="path1"
     style="fill:#cfdbeb;fill-opacity:1" />
</svg>
